<svg xmlns="http://www.w3.org/2000/svg" xmlns:xlink="http://www.w3.org/1999/xlink" width="500" zoomAndPan="magnify" viewBox="0 0 375 374.999991" height="500" preserveAspectRatio="xMidYMid meet" version="1.0"><defs><g/><clipPath id="4b15e0b7fa"><path d="M 24.390625 21.546875 L 359.644531 21.546875 L 359.644531 362.613281 L 24.390625 362.613281 Z M 24.390625 21.546875 " clip-rule="nonzero"/></clipPath><clipPath id="525b2c771c"><path d="M 37.5 182.546875 L 337.5 182.546875 L 337.5 212.996094 L 37.5 212.996094 Z M 37.5 182.546875 " clip-rule="nonzero"/></clipPath></defs><g clip-path="url(#4b15e0b7fa)"><path fill="#ffffff" d="M 298.960938 188.503906 L 243.058594 100.097656 L 354.867188 100.097656 Z M 269.605469 234.964844 L 232.996094 132.324219 L 286.167969 174.683594 L 296.910156 191.71875 Z M 237.171875 286.21875 L 227.179688 239.003906 L 248.328125 185.425781 L 267.28125 238.660156 Z M 192.011719 357.65625 L 147.121094 286.628906 L 156.976562 237.15625 L 191.941406 183.851562 L 223.761719 239.550781 L 234.570312 290.460938 Z M 133.300781 192.199219 L 153.554688 236.675781 L 144.386719 282.457031 L 116.742188 238.730469 Z M 99.703125 171.738281 L 151.089844 132.1875 L 114.484375 234.964844 L 87.113281 191.71875 Z M 140.964844 100.164062 L 119.480469 134.175781 L 97.035156 169.617188 L 96.898438 169.824219 L 85.058594 188.503906 L 29.15625 100.097656 L 140.964844 100.097656 Z M 153.214844 126.304688 L 105.039062 163.390625 L 145.550781 99.34375 L 185.238281 36.527344 Z M 190.300781 148.609375 L 156.703125 126.648438 L 190.300781 32.421875 Z M 193.722656 32.492188 L 227.320312 126.648438 L 193.722656 148.609375 L 193.722656 32.421875 Z M 155.609375 232.980469 L 134.945312 187.613281 L 155.472656 129.929688 L 190.230469 152.648438 L 190.230469 180.085938 Z M 225.0625 234.964844 L 193.722656 180.085938 L 193.722656 152.648438 L 228.484375 129.929688 L 246.546875 180.566406 Z M 238.472656 99.277344 L 280.554688 165.855469 L 230.742188 126.234375 L 198.785156 36.460938 Z M 359.449219 97.566406 C 359.152344 97.015625 358.574219 96.671875 357.945312 96.675781 L 240.867188 96.675781 L 193.449219 21.679688 L 193.378906 21.679688 L 193.242188 21.542969 L 190.984375 21.542969 L 190.847656 21.679688 L 190.777344 21.679688 L 190.640625 21.816406 L 190.574219 21.816406 L 143.15625 96.675781 L 26.074219 96.675781 C 25.128906 96.691406 24.375 97.464844 24.390625 98.410156 C 24.394531 98.714844 24.480469 99.015625 24.636719 99.277344 L 83.625 192.609375 L 190.574219 361.832031 C 191.085938 362.625 192.144531 362.851562 192.9375 362.339844 C 193.140625 362.207031 193.316406 362.035156 193.449219 361.832031 L 300.398438 192.609375 L 359.382812 99.277344 C 359.710938 98.757812 359.738281 98.105469 359.449219 97.566406 " fill-opacity="1" fill-rule="nonzero"/></g><g fill="#000000" fill-opacity="1"><g transform="translate(33.513012, 239.999984)"><g><path d="M 35.546875 2.703125 C 30.046875 2.703125 24.445312 2.023438 18.75 0.671875 C 13.050781 -0.671875 8.300781 -2.445312 4.5 -4.65625 L 5.25 -25.046875 L 6.75 -25.046875 L 11.40625 -15.296875 C 12.800781 -12.492188 14.296875 -10.019531 15.890625 -7.875 C 17.492188 -5.726562 19.695312 -4.050781 22.5 -2.84375 C 24.5 -1.84375 26.421875 -1.164062 28.265625 -0.8125 C 30.117188 -0.46875 32.195312 -0.296875 34.5 -0.296875 C 40.601562 -0.296875 45.425781 -1.945312 48.96875 -5.25 C 52.519531 -8.550781 54.296875 -12.800781 54.296875 -18 C 54.296875 -22.894531 53.09375 -26.71875 50.6875 -29.46875 C 48.289062 -32.21875 44.445312 -34.894531 39.15625 -37.5 L 33 -40.203125 C 24.394531 -44.003906 17.664062 -48.378906 12.8125 -53.328125 C 7.96875 -58.273438 5.546875 -64.847656 5.546875 -73.046875 C 5.546875 -78.953125 7.070312 -84.050781 10.125 -88.34375 C 13.175781 -92.644531 17.425781 -95.945312 22.875 -98.25 C 28.320312 -100.550781 34.695312 -101.703125 42 -101.703125 C 47.300781 -101.703125 52.328125 -101 57.078125 -99.59375 C 61.828125 -98.195312 65.953125 -96.300781 69.453125 -93.90625 L 68.546875 -75.90625 L 67.046875 -75.90625 L 60.90625 -87.15625 C 59.195312 -90.65625 57.492188 -93.128906 55.796875 -94.578125 C 54.097656 -96.023438 52.148438 -97.050781 49.953125 -97.65625 C 48.648438 -98.050781 47.445312 -98.320312 46.34375 -98.46875 C 45.25 -98.625 43.851562 -98.703125 42.15625 -98.703125 C 37.050781 -98.703125 32.75 -97.222656 29.25 -94.265625 C 25.75 -91.316406 24 -87.34375 24 -82.34375 C 24 -77.25 25.347656 -73.175781 28.046875 -70.125 C 30.742188 -67.070312 34.695312 -64.347656 39.90625 -61.953125 L 46.796875 -58.953125 C 56.398438 -54.753906 63.300781 -50.28125 67.5 -45.53125 C 71.695312 -40.78125 73.796875 -34.65625 73.796875 -27.15625 C 73.796875 -18.351562 70.46875 -11.175781 63.8125 -5.625 C 57.164062 -0.0703125 47.742188 2.703125 35.546875 2.703125 Z M 35.546875 2.703125 "/></g></g></g><g fill="#000000" fill-opacity="1"><g transform="translate(118.113026, 239.999984)"><g><path d="M 1.203125 0 L 1.203125 -1.5 L 4.953125 -2.84375 C 6.953125 -3.644531 8.5 -4.617188 9.59375 -5.765625 C 10.695312 -6.921875 11.597656 -8.550781 12.296875 -10.65625 L 43.203125 -99.296875 L 55.953125 -99.296875 L 86.40625 -10.046875 C 87.195312 -7.847656 88.09375 -6.171875 89.09375 -5.015625 C 90.09375 -3.867188 91.644531 -2.894531 93.75 -2.09375 L 95.546875 -1.5 L 95.546875 0 L 57.453125 0 L 57.453125 -1.5 L 59.703125 -2.25 C 61.796875 -3.050781 63.066406 -4.175781 63.515625 -5.625 C 63.972656 -7.070312 63.898438 -8.796875 63.296875 -10.796875 L 56.25 -32.40625 L 22.953125 -32.40625 L 15.75 -11.25 C 15.050781 -9.050781 14.828125 -7.300781 15.078125 -6 C 15.328125 -4.695312 16.5 -3.644531 18.59375 -2.84375 L 21.90625 -1.5 L 21.90625 0 Z M 24 -35.40625 L 55.34375 -35.40625 L 40.203125 -82.046875 Z M 24 -35.40625 "/></g></g></g><g fill="#000000" fill-opacity="1"><g transform="translate(222.063047, 239.999984)"><g><path d="M 3 0 L 3 -1.5 L 6 -2.546875 C 9.394531 -3.648438 11.09375 -6.5 11.09375 -11.09375 L 11.09375 -87.90625 C 11.09375 -89.90625 10.867188 -91.503906 10.421875 -92.703125 C 9.972656 -93.898438 8.800781 -94.898438 6.90625 -95.703125 L 3 -97.5 L 3 -99 L 31.953125 -99 L 59.703125 -26.40625 L 85.796875 -99 L 115.34375 -99 L 115.34375 -97.5 L 112.953125 -96.59375 C 111.046875 -95.894531 109.742188 -94.921875 109.046875 -93.671875 C 108.347656 -92.421875 108 -90.796875 108 -88.796875 L 108 -10.34375 C 108 -8.34375 108.25 -6.789062 108.75 -5.6875 C 109.25 -4.59375 110.445312 -3.644531 112.34375 -2.84375 L 115.34375 -1.5 L 115.34375 0 L 78 0 L 78 -1.5 L 81.15625 -2.84375 C 83.050781 -3.644531 84.25 -4.59375 84.75 -5.6875 C 85.25 -6.789062 85.5 -8.34375 85.5 -10.34375 L 85.5 -44.09375 L 85.796875 -87 L 54.453125 0 L 46.953125 0 L 14.25 -85.953125 L 14.703125 -48.59375 L 14.703125 -10.796875 C 14.703125 -8.597656 15.023438 -6.820312 15.671875 -5.46875 C 16.328125 -4.125 17.601562 -3.148438 19.5 -2.546875 L 22.796875 -1.5 L 22.796875 0 Z M 3 0 "/></g></g></g><g clip-path="url(#525b2c771c)"><path fill="#ededed" d="M 37.5 182.546875 L 337.5 182.546875 L 337.5 212.996094 L 37.5 212.996094 Z M 37.5 182.546875 " fill-opacity="1" fill-rule="nonzero"/></g><g fill="#000000" fill-opacity="1"><g transform="translate(92.515435, 203.326875)"><g><path d="M 2.03125 -7.28125 C 1.875 -7.144531 1.765625 -6.988281 1.703125 -6.8125 C 1.648438 -6.632812 1.625 -6.445312 1.625 -6.25 C 1.625 -6.0625 1.707031 -5.882812 1.875 -5.71875 C 2.039062 -5.550781 2.265625 -5.410156 2.546875 -5.296875 C 2.828125 -5.191406 3.144531 -5.09375 3.5 -5 C 3.851562 -4.914062 4.210938 -4.828125 4.578125 -4.734375 C 4.953125 -4.648438 5.316406 -4.546875 5.671875 -4.421875 C 6.023438 -4.304688 6.335938 -4.160156 6.609375 -3.984375 C 7.234375 -3.585938 7.546875 -3.050781 7.546875 -2.375 C 7.546875 -1.570312 7.242188 -0.957031 6.640625 -0.53125 C 6.035156 -0.101562 5.203125 0.109375 4.140625 0.109375 C 2.929688 0.109375 2.007812 -0.144531 1.375 -0.65625 C 0.8125 -1.101562 0.492188 -1.742188 0.421875 -2.578125 L 1.4375 -2.578125 C 1.46875 -1.984375 1.75 -1.53125 2.28125 -1.21875 C 2.75 -0.945312 3.367188 -0.8125 4.140625 -0.8125 C 5.753906 -0.8125 6.5625 -1.320312 6.5625 -2.34375 C 6.5625 -2.6875 6.414062 -2.957031 6.125 -3.15625 C 5.832031 -3.351562 5.46875 -3.515625 5.03125 -3.640625 C 4.59375 -3.773438 4.117188 -3.898438 3.609375 -4.015625 C 3.109375 -4.128906 2.640625 -4.273438 2.203125 -4.453125 C 1.765625 -4.628906 1.398438 -4.863281 1.109375 -5.15625 C 0.816406 -5.445312 0.671875 -5.835938 0.671875 -6.328125 C 0.671875 -7.035156 0.9375 -7.609375 1.46875 -8.046875 C 2.007812 -8.484375 2.820312 -8.703125 3.90625 -8.703125 C 5 -8.703125 5.847656 -8.453125 6.453125 -7.953125 C 6.992188 -7.515625 7.28125 -6.945312 7.3125 -6.25 L 6.3125 -6.25 C 6.226562 -6.957031 5.769531 -7.429688 4.9375 -7.671875 C 4.644531 -7.753906 4.28125 -7.796875 3.84375 -7.796875 C 3.40625 -7.796875 3.035156 -7.742188 2.734375 -7.640625 C 2.429688 -7.546875 2.195312 -7.425781 2.03125 -7.28125 Z M 2.03125 -7.28125 "/></g></g></g><g fill="#000000" fill-opacity="1"><g transform="translate(109.218021, 203.326875)"><g><path d="M 8.5625 0 L 7.484375 0 L 6.4375 -2.5 L 2.171875 -2.5 L 1.125 0 L 0.03125 0 L 3.6875 -8.609375 L 4.90625 -8.609375 Z M 6.0625 -3.390625 L 4.296875 -7.59375 L 2.546875 -3.390625 Z M 6.0625 -3.390625 "/></g></g></g><g fill="#000000" fill-opacity="1"><g transform="translate(126.531413, 203.326875)"><g><path d="M 9.421875 -8.609375 L 9.421875 0 L 8.453125 0 L 8.453125 -7.125 L 5.265625 -3.03125 L 2.03125 -7.125 L 2.03125 0 L 1.046875 0 L 1.046875 -8.609375 L 2.1875 -8.609375 L 5.265625 -4.53125 L 8.296875 -8.609375 Z M 9.421875 -8.609375 "/></g></g></g><g fill="#000000" fill-opacity="1"><g transform="translate(145.716233, 203.326875)"><g><path d="M 8.265625 -8.609375 L 8.265625 -3.703125 C 8.265625 -2.554688 7.925781 -1.632812 7.25 -0.9375 C 6.570312 -0.238281 5.691406 0.109375 4.609375 0.109375 C 3.523438 0.109375 2.644531 -0.238281 1.96875 -0.9375 C 1.289062 -1.632812 0.953125 -2.554688 0.953125 -3.703125 L 0.953125 -8.609375 L 1.921875 -8.609375 L 1.921875 -3.671875 C 1.921875 -2.742188 2.195312 -2.023438 2.75 -1.515625 C 3.226562 -1.066406 3.847656 -0.84375 4.609375 -0.84375 C 5.359375 -0.84375 5.976562 -1.066406 6.46875 -1.515625 C 7.019531 -2.023438 7.296875 -2.742188 7.296875 -3.671875 L 7.296875 -8.609375 Z M 8.265625 -8.609375 "/></g></g></g><g fill="#000000" fill-opacity="1"><g transform="translate(163.640444, 203.326875)"><g><path d="M 2.03125 -7.671875 L 2.03125 -4.78125 L 6.8125 -4.78125 L 6.8125 -3.828125 L 2.03125 -3.828125 L 2.03125 -0.9375 L 7.390625 -0.9375 L 7.390625 0 L 1.046875 0 L 1.046875 -8.609375 L 7.390625 -8.609375 L 7.390625 -7.671875 Z M 2.03125 -7.671875 "/></g></g></g><g fill="#000000" fill-opacity="1"><g transform="translate(180.252063, 203.326875)"><g><path d="M 2.03125 -8.609375 L 2.03125 -0.9375 L 6.71875 -0.9375 L 6.71875 0 L 1.046875 0 L 1.046875 -8.609375 Z M 2.03125 -8.609375 "/></g></g></g><g fill="#000000" fill-opacity="1"><g transform="translate(195.888972, 203.326875)"><g/></g></g><g fill="#000000" fill-opacity="1"><g transform="translate(207.367155, 203.326875)"><g><path d="M 2.03125 0 L 1.046875 0 L 1.046875 -8.609375 L 4.921875 -8.609375 C 5.835938 -8.609375 6.5625 -8.359375 7.09375 -7.859375 C 7.625 -7.347656 7.890625 -6.675781 7.890625 -5.84375 C 7.890625 -4.988281 7.625 -4.3125 7.09375 -3.8125 C 6.5625 -3.3125 5.835938 -3.0625 4.921875 -3.0625 L 2.03125 -3.0625 Z M 2.03125 -7.6875 L 2.03125 -3.984375 L 4.859375 -3.984375 C 5.535156 -3.984375 6.046875 -4.144531 6.390625 -4.46875 C 6.742188 -4.800781 6.921875 -5.253906 6.921875 -5.828125 C 6.921875 -6.398438 6.742188 -6.851562 6.390625 -7.1875 C 6.046875 -7.519531 5.535156 -7.6875 4.859375 -7.6875 Z M 2.03125 -7.6875 "/></g></g></g><g fill="#000000" fill-opacity="1"><g transform="translate(224.238687, 203.326875)"><g><path d="M 2.03125 -7.671875 L 2.03125 -4.78125 L 6.8125 -4.78125 L 6.8125 -3.828125 L 2.03125 -3.828125 L 2.03125 -0.9375 L 7.390625 -0.9375 L 7.390625 0 L 1.046875 0 L 1.046875 -8.609375 L 7.390625 -8.609375 L 7.390625 -7.671875 Z M 2.03125 -7.671875 "/></g></g></g><g fill="#000000" fill-opacity="1"><g transform="translate(240.8503, 203.326875)"><g><path d="M 2.03125 0 L 1.046875 0 L 1.046875 -8.609375 L 5.171875 -8.609375 C 6.046875 -8.609375 6.75 -8.363281 7.28125 -7.875 C 7.8125 -7.394531 8.078125 -6.742188 8.078125 -5.921875 C 8.078125 -4.835938 7.628906 -4.101562 6.734375 -3.71875 C 6.484375 -3.601562 6.238281 -3.519531 6 -3.46875 L 8.25 0 L 7.09375 0 L 5.015625 -3.296875 L 2.03125 -3.296875 Z M 2.03125 -4.21875 L 5 -4.21875 C 5.925781 -4.21875 6.5625 -4.503906 6.90625 -5.078125 C 7.03125 -5.296875 7.09375 -5.578125 7.09375 -5.921875 C 7.09375 -6.460938 6.90625 -6.890625 6.53125 -7.203125 C 6.164062 -7.523438 5.675781 -7.6875 5.0625 -7.6875 L 2.03125 -7.6875 Z M 2.03125 -4.21875 "/></g></g></g><g fill="#000000" fill-opacity="1"><g transform="translate(258.254668, 203.326875)"><g><path d="M 2.03125 -7.671875 L 2.03125 -4.78125 L 6.8125 -4.78125 L 6.8125 -3.828125 L 2.03125 -3.828125 L 2.03125 -0.9375 L 7.390625 -0.9375 L 7.390625 0 L 1.046875 0 L 1.046875 -8.609375 L 7.390625 -8.609375 L 7.390625 -7.671875 Z M 2.03125 -7.671875 "/></g></g></g><g fill="#000000" fill-opacity="1"><g transform="translate(274.866281, 203.326875)"><g><path d="M 1.578125 -0.90625 L 7.1875 -0.90625 L 7.1875 0 L 0.375 0 L 0.375 -0.921875 L 6 -7.703125 L 0.453125 -7.703125 L 0.453125 -8.609375 L 7.1875 -8.609375 L 7.1875 -7.671875 Z M 1.578125 -0.90625 "/></g></g></g><g fill="#000000" fill-opacity="1"><g transform="translate(151.417105, 274.166524)"><g><path d="M 1.25 -4.71875 L 1.25 -2.875 L 4.125 -2.875 L 4.125 -2.296875 L 1.25 -2.296875 L 1.25 0 L 0.640625 0 L 0.640625 -5.296875 L 4.46875 -5.296875 L 4.46875 -4.71875 Z M 1.25 -4.71875 "/></g></g></g><g fill="#000000" fill-opacity="1"><g transform="translate(159.825399, 274.166524)"><g><path d="M 5.09375 -5.296875 L 5.09375 -2.28125 C 5.09375 -1.570312 4.878906 -1.003906 4.453125 -0.578125 C 4.035156 -0.148438 3.492188 0.0625 2.828125 0.0625 C 2.171875 0.0625 1.628906 -0.148438 1.203125 -0.578125 C 0.785156 -1.003906 0.578125 -1.570312 0.578125 -2.28125 L 0.578125 -5.296875 L 1.1875 -5.296875 L 1.1875 -2.265625 C 1.1875 -1.691406 1.359375 -1.242188 1.703125 -0.921875 C 1.992188 -0.648438 2.367188 -0.515625 2.828125 -0.515625 C 3.296875 -0.515625 3.675781 -0.648438 3.96875 -0.921875 C 4.3125 -1.242188 4.484375 -1.691406 4.484375 -2.265625 L 4.484375 -5.296875 Z M 5.09375 -5.296875 "/></g></g></g><g fill="#000000" fill-opacity="1"><g transform="translate(169.241731, 274.166524)"><g><path d="M 1.25 -5.296875 L 1.25 -0.578125 L 4.140625 -0.578125 L 4.140625 0 L 0.640625 0 L 0.640625 -5.296875 Z M 1.25 -5.296875 "/></g></g></g><g fill="#000000" fill-opacity="1"><g transform="translate(177.250009, 274.166524)"><g><path d="M 1.25 -5.296875 L 1.25 -0.578125 L 4.140625 -0.578125 L 4.140625 0 L 0.640625 0 L 0.640625 -5.296875 Z M 1.25 -5.296875 "/></g></g></g><g fill="#000000" fill-opacity="1"><g transform="translate(185.258287, 274.166524)"><g/></g></g><g fill="#000000" fill-opacity="1"><g transform="translate(190.706468, 274.166524)"><g><path d="M 1.25 -4.484375 C 1.15625 -4.398438 1.085938 -4.300781 1.046875 -4.1875 C 1.015625 -4.082031 1 -3.96875 1 -3.84375 C 1 -3.726562 1.050781 -3.617188 1.15625 -3.515625 C 1.257812 -3.421875 1.394531 -3.335938 1.5625 -3.265625 C 1.738281 -3.191406 1.9375 -3.128906 2.15625 -3.078125 C 2.375 -3.023438 2.59375 -2.96875 2.8125 -2.90625 C 3.039062 -2.851562 3.265625 -2.789062 3.484375 -2.71875 C 3.703125 -2.644531 3.898438 -2.554688 4.078125 -2.453125 C 4.453125 -2.210938 4.640625 -1.882812 4.640625 -1.46875 C 4.640625 -0.96875 4.453125 -0.585938 4.078125 -0.328125 C 3.710938 -0.0664062 3.203125 0.0625 2.546875 0.0625 C 1.804688 0.0625 1.238281 -0.09375 0.84375 -0.40625 C 0.5 -0.675781 0.300781 -1.066406 0.25 -1.578125 L 0.875 -1.578125 C 0.894531 -1.222656 1.070312 -0.945312 1.40625 -0.75 C 1.695312 -0.582031 2.078125 -0.5 2.546875 -0.5 C 3.546875 -0.5 4.046875 -0.8125 4.046875 -1.4375 C 4.046875 -1.65625 3.953125 -1.820312 3.765625 -1.9375 C 3.585938 -2.0625 3.363281 -2.164062 3.09375 -2.25 C 2.832031 -2.332031 2.546875 -2.40625 2.234375 -2.46875 C 1.921875 -2.539062 1.628906 -2.628906 1.359375 -2.734375 C 1.085938 -2.847656 0.863281 -2.992188 0.6875 -3.171875 C 0.507812 -3.347656 0.421875 -3.585938 0.421875 -3.890625 C 0.421875 -4.328125 0.582031 -4.679688 0.90625 -4.953125 C 1.238281 -5.222656 1.738281 -5.359375 2.40625 -5.359375 C 3.082031 -5.359375 3.601562 -5.203125 3.96875 -4.890625 C 4.300781 -4.617188 4.476562 -4.269531 4.5 -3.84375 L 3.890625 -3.84375 C 3.835938 -4.28125 3.554688 -4.570312 3.046875 -4.71875 C 2.859375 -4.769531 2.628906 -4.796875 2.359375 -4.796875 C 2.085938 -4.796875 1.859375 -4.765625 1.671875 -4.703125 C 1.492188 -4.640625 1.351562 -4.566406 1.25 -4.484375 Z M 1.25 -4.484375 "/></g></g></g><g fill="#000000" fill-opacity="1"><g transform="translate(199.370771, 274.166524)"><g><path d="M 4.40625 -4.71875 L 2.5625 -4.71875 L 2.5625 0 L 1.953125 0 L 1.953125 -4.71875 L 0.109375 -4.71875 L 0.109375 -5.296875 L 4.40625 -5.296875 Z M 4.40625 -4.71875 "/></g></g></g><g fill="#000000" fill-opacity="1"><g transform="translate(207.635057, 274.166524)"><g><path d="M 5.265625 0 L 4.609375 0 L 3.953125 -1.53125 L 1.34375 -1.53125 L 0.6875 0 L 0.03125 0 L 2.265625 -5.296875 L 3.03125 -5.296875 Z M 3.734375 -2.09375 L 2.640625 -4.671875 L 1.5625 -2.09375 Z M 3.734375 -2.09375 "/></g></g></g><g fill="#000000" fill-opacity="1"><g transform="translate(216.675378, 274.166524)"><g><path d="M 3.015625 -0.515625 C 3.390625 -0.515625 3.71875 -0.609375 4 -0.796875 C 4.289062 -0.992188 4.503906 -1.253906 4.640625 -1.578125 L 5.265625 -1.578125 C 5.097656 -1.078125 4.8125 -0.6875 4.40625 -0.40625 C 3.96875 -0.09375 3.457031 0.0625 2.875 0.0625 C 2.101562 0.0625 1.472656 -0.203125 0.984375 -0.734375 C 0.535156 -1.234375 0.3125 -1.867188 0.3125 -2.640625 C 0.3125 -3.421875 0.535156 -4.0625 0.984375 -4.5625 C 1.472656 -5.09375 2.101562 -5.359375 2.875 -5.359375 C 3.457031 -5.359375 3.96875 -5.203125 4.40625 -4.890625 C 4.8125 -4.609375 5.097656 -4.21875 5.265625 -3.71875 L 4.640625 -3.71875 C 4.503906 -4.039062 4.289062 -4.296875 4 -4.484375 C 3.71875 -4.679688 3.382812 -4.78125 3 -4.78125 C 2.625 -4.78125 2.3125 -4.722656 2.0625 -4.609375 C 1.8125 -4.503906 1.601562 -4.351562 1.4375 -4.15625 C 1.082031 -3.769531 0.90625 -3.265625 0.90625 -2.640625 C 0.90625 -2.023438 1.082031 -1.523438 1.4375 -1.140625 C 1.789062 -0.722656 2.316406 -0.515625 3.015625 -0.515625 Z M 3.015625 -0.515625 "/></g></g></g><g fill="#000000" fill-opacity="1"><g transform="translate(225.939706, 274.166524)"><g><path d="M 2.78125 -3.171875 L 5.171875 0 L 4.421875 0 L 2.34375 -2.765625 L 1.25 -1.734375 L 1.25 0 L 0.640625 0 L 0.640625 -5.296875 L 1.25 -5.296875 L 1.25 -2.53125 L 4.1875 -5.296875 L 5.046875 -5.296875 Z M 2.78125 -3.171875 "/></g></g></g><g fill="#000000" fill-opacity="1"><g transform="translate(153.323414, 284.833524)"><g><path d="M 2.875 -5.296875 C 3.195312 -5.296875 3.503906 -5.234375 3.796875 -5.109375 C 4.085938 -4.992188 4.34375 -4.820312 4.5625 -4.59375 C 5.0625 -4.082031 5.3125 -3.429688 5.3125 -2.640625 C 5.3125 -1.859375 5.0625 -1.210938 4.5625 -0.703125 C 4.34375 -0.472656 4.085938 -0.296875 3.796875 -0.171875 C 3.503906 -0.0546875 3.195312 0 2.875 0 L 0.640625 0 L 0.640625 -5.296875 Z M 2.859375 -0.5625 C 3.410156 -0.5625 3.859375 -0.769531 4.203125 -1.1875 C 4.546875 -1.582031 4.71875 -2.066406 4.71875 -2.640625 C 4.71875 -3.222656 4.546875 -3.710938 4.203125 -4.109375 C 3.859375 -4.523438 3.410156 -4.734375 2.859375 -4.734375 L 1.25 -4.734375 L 1.25 -0.5625 Z M 2.859375 -0.5625 "/></g></g></g><g fill="#000000" fill-opacity="1"><g transform="translate(162.699747, 284.833524)"><g><path d="M 1.25 -4.71875 L 1.25 -2.9375 L 4.1875 -2.9375 L 4.1875 -2.359375 L 1.25 -2.359375 L 1.25 -0.578125 L 4.546875 -0.578125 L 4.546875 0 L 0.640625 0 L 0.640625 -5.296875 L 4.546875 -5.296875 L 4.546875 -4.71875 Z M 1.25 -4.71875 "/></g></g></g><g fill="#000000" fill-opacity="1"><g transform="translate(171.308049, 284.833524)"><g><path d="M 5 -5.296875 L 2.859375 0 L 2.171875 0 L 0.03125 -5.296875 L 0.6875 -5.296875 L 2.515625 -0.6875 L 4.34375 -5.296875 Z M 5 -5.296875 "/></g></g></g><g fill="#000000" fill-opacity="1"><g transform="translate(180.07636, 284.833524)"><g><path d="M 1.25 -4.71875 L 1.25 -2.9375 L 4.1875 -2.9375 L 4.1875 -2.359375 L 1.25 -2.359375 L 1.25 -0.578125 L 4.546875 -0.578125 L 4.546875 0 L 0.640625 0 L 0.640625 -5.296875 L 4.546875 -5.296875 L 4.546875 -4.71875 Z M 1.25 -4.71875 "/></g></g></g><g fill="#000000" fill-opacity="1"><g transform="translate(188.684664, 284.833524)"><g><path d="M 1.25 -5.296875 L 1.25 -0.578125 L 4.140625 -0.578125 L 4.140625 0 L 0.640625 0 L 0.640625 -5.296875 Z M 1.25 -5.296875 "/></g></g></g><g fill="#000000" fill-opacity="1"><g transform="translate(196.692943, 284.833524)"><g><path d="M 3 -5.359375 C 3.789062 -5.359375 4.4375 -5.09375 4.9375 -4.5625 C 5.4375 -4.050781 5.6875 -3.410156 5.6875 -2.640625 C 5.6875 -1.878906 5.4375 -1.242188 4.9375 -0.734375 C 4.4375 -0.203125 3.789062 0.0625 3 0.0625 C 2.207031 0.0625 1.5625 -0.203125 1.0625 -0.734375 C 0.5625 -1.242188 0.3125 -1.878906 0.3125 -2.640625 C 0.3125 -3.410156 0.5625 -4.050781 1.0625 -4.5625 C 1.5625 -5.09375 2.207031 -5.359375 3 -5.359375 Z M 3 -0.515625 C 3.625 -0.515625 4.132812 -0.722656 4.53125 -1.140625 C 4.90625 -1.535156 5.09375 -2.035156 5.09375 -2.640625 C 5.09375 -3.253906 4.90625 -3.757812 4.53125 -4.15625 C 4.132812 -4.570312 3.625 -4.78125 3 -4.78125 C 2.375 -4.78125 1.863281 -4.570312 1.46875 -4.15625 C 1.09375 -3.757812 0.90625 -3.253906 0.90625 -2.640625 C 0.90625 -2.035156 1.09375 -1.535156 1.46875 -1.140625 C 1.863281 -0.722656 2.375 -0.515625 3 -0.515625 Z M 3 -0.515625 "/></g></g></g><g fill="#000000" fill-opacity="1"><g transform="translate(206.437286, 284.833524)"><g><path d="M 1.25 0 L 0.640625 0 L 0.640625 -5.296875 L 3.03125 -5.296875 C 3.59375 -5.296875 4.039062 -5.140625 4.375 -4.828125 C 4.695312 -4.523438 4.859375 -4.113281 4.859375 -3.59375 C 4.859375 -3.070312 4.691406 -2.65625 4.359375 -2.34375 C 4.035156 -2.039062 3.59375 -1.890625 3.03125 -1.890625 L 1.25 -1.890625 Z M 1.25 -4.734375 L 1.25 -2.453125 L 2.984375 -2.453125 C 3.398438 -2.453125 3.710938 -2.550781 3.921875 -2.75 C 4.140625 -2.957031 4.25 -3.238281 4.25 -3.59375 C 4.25 -3.945312 4.140625 -4.222656 3.921875 -4.421875 C 3.710938 -4.628906 3.398438 -4.734375 2.984375 -4.734375 Z M 1.25 -4.734375 "/></g></g></g><g fill="#000000" fill-opacity="1"><g transform="translate(215.205596, 284.833524)"><g><path d="M 1.25 -4.71875 L 1.25 -2.9375 L 4.1875 -2.9375 L 4.1875 -2.359375 L 1.25 -2.359375 L 1.25 -0.578125 L 4.546875 -0.578125 L 4.546875 0 L 0.640625 0 L 0.640625 -5.296875 L 4.546875 -5.296875 L 4.546875 -4.71875 Z M 1.25 -4.71875 "/></g></g></g><g fill="#000000" fill-opacity="1"><g transform="translate(223.813897, 284.833524)"><g><path d="M 1.25 0 L 0.640625 0 L 0.640625 -5.296875 L 3.1875 -5.296875 C 3.71875 -5.296875 4.148438 -5.144531 4.484375 -4.84375 C 4.804688 -4.550781 4.96875 -4.148438 4.96875 -3.640625 C 4.96875 -2.972656 4.691406 -2.519531 4.140625 -2.28125 C 3.984375 -2.21875 3.832031 -2.171875 3.6875 -2.140625 L 5.078125 0 L 4.375 0 L 3.09375 -2.03125 L 1.25 -2.03125 Z M 1.25 -2.59375 L 3.078125 -2.59375 C 3.640625 -2.59375 4.03125 -2.769531 4.25 -3.125 C 4.332031 -3.257812 4.375 -3.429688 4.375 -3.640625 C 4.375 -3.972656 4.257812 -4.238281 4.03125 -4.4375 C 3.800781 -4.632812 3.492188 -4.734375 3.109375 -4.734375 L 1.25 -4.734375 Z M 1.25 -2.59375 "/></g></g></g></svg>